<?xml version="1.0" encoding="utf-8"?><svg xmlns="http://www.w3.org/2000/svg" xmlns:xlink="http://www.w3.org/1999/xlink" width="1536" height="730" preserveAspectRatio="xMidYMid" viewBox="0 0 1536 730" style="z-index:1;margin-right:-1.6px;display:block;background-color:rgb(255, 255, 255);animation-play-state:paused" ><g transform="translate(768,365) scale(1,1) translate(-768,-365)" style="transform:matrix(1, 0, 0, 1, 0, 0);animation-play-state:paused" ><linearGradient id="lg-0.970450675559573" x1="0" x2="1" y1="0" y2="0" style="animation-play-state:paused" ><stop stop-color="#ff00ff" offset="0" style="animation-play-state:paused" ></stop>

  
<stop stop-color="#00ffff" offset="1" style="animation-play-state:paused" ></stop></linearGradient>
<path d="M 0 0 M 0 625.646 Q 153.6 626.154 307.2 616.81 T 614.4 594.272 T 921.6 591.154 T 1228.8 531.661 T 1536 486.15 L 1536 187.101 Q 1382.4 218.703 1228.8 210.712 T 921.6 172.754 T 614.4 121.799 T 307.2 70.929 T 0 71.6518 Z" fill="url(#lg-0.970450675559573)" opacity="0.4" style="opacity:0.4;animation-play-state:paused" ></path>
<path d="M 0 0 M 0 647.963 Q 153.6 676.027 307.2 671.367 T 614.4 605.186 T 921.6 555.952 T 1228.8 543.846 T 1536 513.953 L 1536 220.861 Q 1382.4 210.354 1228.8 206.144 T 921.6 164.702 T 614.4 98.6836 T 307.2 109.577 T 0 60.7825 Z" fill="url(#lg-0.970450675559573)" opacity="0.4" style="opacity:0.4;animation-play-state:paused" ></path>
<path d="M 0 0 M 0 663.507 Q 153.6 620.516 307.2 616.481 T 614.4 586.98 T 921.6 598.817 T 1228.8 554.916 T 1536 551.189 L 1536 196.773 Q 1382.4 184.949 1228.8 178.431 T 921.6 134.077 T 614.4 126.584 T 307.2 75.6268 T 0 87.1768 Z" fill="url(#lg-0.970450675559573)" opacity="0.4" style="opacity:0.4;animation-play-state:paused" ></path>
<path d="M 0 0 M 0 625.19 Q 153.6 635.923 307.2 630.151 T 614.4 623.119 T 921.6 607.77 T 1228.8 565.233 T 1536 502.168 L 1536 232.744 Q 1382.4 190.43 1228.8 189.426 T 921.6 163.348 T 614.4 121.894 T 307.2 76.713 T 0 91.0786 Z" fill="url(#lg-0.970450675559573)" opacity="0.4" style="opacity:0.4;animation-play-state:paused" ></path></g></svg>